<?xml version="1.0" encoding="UTF-8"?>
<svg version="1.1" xmlns="http://www.w3.org/2000/svg" width="201" height="21">
<path d="M0 0 C1.98 0 3.96 0 6 0 C6 3.96 6 7.92 6 12 C7.32 11.34 8.64 10.68 10 10 C10 8.35 10 6.7 10 5 C12.76250036 3.61874982 14.94731099 3.80920694 18 4 C20 6 20 6 20.265625 7.875 C20.26046875 8.57625 20.2553125 9.2775 20.25 10 C20.25515625 10.70125 20.2603125 11.4025 20.265625 12.125 C20 14 20 14 18 16 C15 16.25 15 16.25 12 16 C11.34 15.34 10.68 14.68 10 14 C9.67 14.66 9.34 15.32 9 16 C5.7 16 2.4 16 -1 16 C-1 14.68 -1 13.36 -1 12 C-0.01 12 0.98 12 2 12 C2 9.03 2 6.06 2 3 C1.01 2.67 0.02 2.34 -1 2 C-0.67 1.34 -0.34 0.68 0 0 Z " fill="#A9A9A9" transform="translate(151,5)"/>
<path d="M0 0 C6.75 -0.125 6.75 -0.125 9 1 C10.92297224 0.86403146 10.92297224 0.86403146 13 0.5 C16.77777778 -0.11111111 16.77777778 -0.11111111 19 1 C19 1.66 19 2.32 19 3 C18.34 3 17.68 3 17 3 C17 3.99 17 4.98 17 6 C17.66 6 18.32 6 19 6 C19.33 4.35 19.66 2.7 20 1 C21.65 1 23.3 1 25 1 C25 1.66 25 2.32 25 3 C26.32 3 27.64 3 29 3 C29 3.99 29 4.98 29 6 C28.01 6 27.02 6 26 6 C25.67 6.66 25.34 7.32 25 8 C21.33333333 8 17.66666667 8 14 8 C12.51306641 8.01740234 12.51306641 8.01740234 10.99609375 8.03515625 C9.23458984 8.04869141 9.23458984 8.04869141 7.4375 8.0625 C5.67212891 8.07990234 5.67212891 8.07990234 3.87109375 8.09765625 C1 8 1 8 0 7 C-0.04092937 4.66702567 -0.04241723 2.33294775 0 0 Z " fill="#FEFEFE" transform="translate(171,2)"/>
<path d="M0 0 C2.14553377 3.21830065 2.29583868 4.26786507 2.3125 8 C2.32925781 8.86625 2.34601563 9.7325 2.36328125 10.625 C1.93132944 13.44894305 1.27178475 14.3192046 -1 16 C-3.80983677 16.42147552 -5.2991283 16.49776873 -7.64453125 14.83203125 C-9.53941678 12.27093237 -9.29852364 10.45816988 -9.1875 7.3125 C-9.16042969 6.31863281 -9.13335937 5.32476562 -9.10546875 4.30078125 C-9.07066406 3.54152344 -9.03585938 2.78226562 -9 2 C-5.79680506 0.2893576 -3.67761637 -0.48389689 0 0 Z M-5 4 C-4 6 -4 6 -4 6 Z " fill="#A8A8A8" transform="translate(85,5)"/>
<path d="M0 0 C2.42130331 3.63195496 2.21022785 5.38349348 2.125 9.6875 C2.10695313 10.86699219 2.08890625 12.04648437 2.0703125 13.26171875 C2.03550781 14.61716797 2.03550781 14.61716797 2 16 C-5.32215357 16.36010591 -5.32215357 16.36010591 -8 14.9375 C-9.57975504 11.87672462 -9.36750064 9.36875585 -9 6 C-5.77208445 3.8480563 -4.71599191 3.79913557 -1 4 C-0.67 2.68 -0.34 1.36 0 0 Z M-5 7 C-5.33 7.99 -5.66 8.98 -6 10 C-4.515 10.99 -4.515 10.99 -3 12 C-2.34 11.01 -1.68 10.02 -1 9 C-2.32 8.34 -3.64 7.68 -5 7 Z " fill="#A9A9A9" transform="translate(109,5)"/>
<path d="M0 0 C3 0.1875 3 0.1875 5 1.1875 C5.4140625 3.69140625 5.4140625 3.69140625 5.625 6.75 C5.69976562 7.76191406 5.77453125 8.77382813 5.8515625 9.81640625 C5.90054688 10.59886719 5.94953125 11.38132812 6 12.1875 C4.741875 12.208125 3.48375 12.22875 2.1875 12.25 C1.47980469 12.26160156 0.77210938 12.27320313 0.04296875 12.28515625 C-2 12.1875 -2 12.1875 -5 11.1875 C-5.05399736 9.72957116 -5.09279177 8.27107288 -5.125 6.8125 C-5.15980469 5.59433594 -5.15980469 5.59433594 -5.1953125 4.3515625 C-4.86450599 0.68622635 -3.5112977 0.21945611 0 0 Z M0 3.1875 C1 5.1875 1 5.1875 1 5.1875 Z " fill="#A9A9A9" transform="translate(143,8.8125)"/>
<path d="M0 0 C2.64 0 5.28 0 8 0 C9.41404314 3.80024093 10.34892324 6.92922882 10 11 C9 12 9 12 6.93359375 12.09765625 C3.46679688 12.04882812 3.46679688 12.04882812 0 12 C0 8.04 0 4.08 0 0 Z M3 2 C3 2.66 3 3.32 3 4 C3.66 3.67 4.32 3.34 5 3 C4.34 2.67 3.68 2.34 3 2 Z M3 7 C3 7.66 3 8.32 3 9 C3.66 8.67 4.32 8.34 5 8 C4.34 7.67 3.68 7.34 3 7 Z " fill="#A8A8A8" transform="translate(37,7)"/>
<path d="M0 0 C7.28358209 -0.35820896 7.28358209 -0.35820896 10 1 C11.63983879 4.27967758 11.17845638 7.37138689 11 11 C9.68 11 8.36 11 7 11 C6.67 8.69 6.34 6.38 6 4 C5.67 4 5.34 4 5 4 C4.67 6.64 4.34 9.28 4 12 C2.68 12 1.36 12 0 12 C0 8.04 0 4.08 0 0 Z " fill="#A9A9A9" transform="translate(125,9)"/>
<path d="M0 0 C2.13586678 3.20380017 2.23132175 4.01939967 2.125 7.6875 C2.10695313 8.49574219 2.08890625 9.30398438 2.0703125 10.13671875 C2.03550781 11.05904297 2.03550781 11.05904297 2 12 C3.32 12 4.64 12 6 12 C6 13.32 6 14.64 6 16 C2.37 16 -1.26 16 -5 16 C-5 14.68 -5 13.36 -5 12 C-3.68 12 -2.36 12 -1 12 C-1 10.02 -1 8.04 -1 6 C-2.32 5.67 -3.64 5.34 -5 5 C-3.35 3.35 -1.7 1.7 0 0 Z " fill="#A9A9A9" transform="translate(118,5)"/>
<path d="M0 0 C0.66 0.66 1.32 1.32 2 2 C1.360625 2.61875 0.72125 3.2375 0.0625 3.875 C-2.03883584 5.82597612 -2.03883584 5.82597612 -3 8 C-2.01 8 -1.02 8 0 8 C0 9.32 0 10.64 0 12 C-2.64 12 -5.28 12 -8 12 C-7.70703125 10.01432292 -7.4140625 8.02864583 -7.12109375 6.04296875 C-6.86095201 3.7974658 -6.86095201 3.7974658 -8 1 C-5.23749964 -0.38125018 -3.05268901 -0.19079306 0 0 Z " fill="#A9A9A9" transform="translate(97,9)"/>
<path d="M0 0 C0 3.96 0 7.92 0 12 C-1.32 12 -2.64 12 -4 12 C-4 8.7 -4 5.4 -4 2 C-5.32 1.67 -6.64 1.34 -8 1 C-6 0 -6 0 0 0 Z " fill="#A9A9A9" transform="translate(67,7)"/>
<path d="M0 0 C1.51953125 1.20703125 1.51953125 1.20703125 3 3 C3.07421875 5.26171875 3.07421875 5.26171875 2.6875 7.6875 C2.50767578 8.89986328 2.50767578 8.89986328 2.32421875 10.13671875 C2.21722656 10.75160156 2.11023437 11.36648437 2 12 C0 10 0 10 -0.1953125 7.6171875 C-0.17210937 6.71226563 -0.14890625 5.80734375 -0.125 4.875 C-0.10695312 3.96492187 -0.08890625 3.05484375 -0.0703125 2.1171875 C-0.04710937 1.41851562 -0.02390625 0.71984375 0 0 Z " fill="#999999" transform="translate(52,7)"/>
</svg>
