<?xml version="1.0" encoding="UTF-8"?>
<!DOCTYPE svg PUBLIC "-//W3C//DTD SVG 1.1//EN" "http://www.w3.org/Graphics/SVG/1.1/DTD/svg11.dtd">
<svg xmlns="http://www.w3.org/2000/svg" version="1.1" width="201px" height="21px" style="shape-rendering:geometricPrecision; text-rendering:geometricPrecision; image-rendering:optimizeQuality; fill-rule:evenodd; clip-rule:evenodd" xmlns:xlink="http://www.w3.org/1999/xlink">
<g><path style="opacity:0.769" fill="#0c0b0b" d="M 82.5,20.5 C 81.5,20.5 80.5,20.5 79.5,20.5C 78.5313,19.6906 77.6979,18.6906 77,17.5C 76.3333,14.1667 76.3333,10.8333 77,7.5C 83.3808,3.60332 86.5475,5.43665 86.5,13C 87.0426,16.5973 85.7092,19.0973 82.5,20.5 Z M 80.5,7.5 C 81.4972,7.47008 82.1639,7.97008 82.5,9C 78.3129,14.9912 77.6462,14.4912 80.5,7.5 Z M 83.5,11.5 C 84.0431,11.56 84.3764,11.8933 84.5,12.5C 84.047,14.5652 83.047,16.2318 81.5,17.5C 81.1667,17.1667 80.8333,16.8333 80.5,16.5C 81.7629,14.9713 82.7629,13.3046 83.5,11.5 Z"/></g>
<g><path style="opacity:0.792" fill="#0c0b0b" d="M 110.5,20.5 C 109.833,20.5 109.167,20.5 108.5,20.5C 107.833,19.1667 107.167,19.1667 106.5,20.5C 105.5,20.5 104.5,20.5 103.5,20.5C 100.613,18.2821 99.7795,15.2821 101,11.5C 103.106,9.70896 105.606,9.04229 108.5,9.5C 108.238,8.02218 108.571,6.68884 109.5,5.5C 110.494,10.456 110.827,15.456 110.5,20.5 Z M 104.5,11.5 C 109.229,12.9264 109.562,14.9264 105.5,17.5C 102.056,15.9619 101.723,13.9619 104.5,11.5 Z"/></g>
<g><path style="opacity:0.837" fill="#0c0b0b" d="M 159.5,20.5 C 156.5,20.5 153.5,20.5 150.5,20.5C 150.5,19.5 150.5,18.5 150.5,17.5C 151.5,17.5 152.5,17.5 153.5,17.5C 153.5,14.1667 153.5,10.8333 153.5,7.5C 152.325,7.71901 151.325,7.38568 150.5,6.5C 152.396,5.53443 154.396,5.2011 156.5,5.5C 156.5,9.5 156.5,13.5 156.5,17.5C 157.5,17.5 158.5,17.5 159.5,17.5C 159.5,18.5 159.5,19.5 159.5,20.5 Z"/></g>
<g><path style="opacity:0.636" fill="#918c79" d="M 194.5,6.5 C 193.5,6.5 192.5,6.5 191.5,6.5C 191.114,14.3981 190.114,14.3981 188.5,6.5C 187.833,8.5 187.167,10.5 186.5,12.5C 184.504,13.6096 182.671,13.2763 181,11.5C 179.301,12.4061 177.467,12.7394 175.5,12.5C 175.5,10.1667 175.5,7.83333 175.5,5.5C 177.167,5.5 178.833,5.5 180.5,5.5C 180.5,6.83333 180.5,8.16667 180.5,9.5C 181.5,9.5 182.5,9.5 183.5,9.5C 183.953,8.54163 184.619,7.7083 185.5,7C 180.812,7.9856 180.478,7.15227 184.5,4.5C 187.971,5.09729 191.305,5.76396 194.5,6.5 Z M 183.5,9.5 C 184.289,9.78281 184.956,10.2828 185.5,11C 184.184,11.5281 183.517,11.0281 183.5,9.5 Z"/></g>
<g><path style="opacity:0.564" fill="#908b79" d="M 200.5,11.5 C 200.5,11.8333 200.5,12.1667 200.5,12.5C 198.416,11.7517 196.416,11.7517 194.5,12.5C 193.769,10.5988 193.769,8.59885 194.5,6.5C 195.708,5.76589 197.041,5.43255 198.5,5.5C 198.595,7.7857 199.262,9.7857 200.5,11.5 Z"/></g>
<g><path style="opacity:0.852" fill="#0c0b0b" d="M 123.5,20.5 C 120.167,20.5 116.833,20.5 113.5,20.5C 113.5,19.5 113.5,18.5 113.5,17.5C 114.833,17.5 116.167,17.5 117.5,17.5C 117.5,15.1667 117.5,12.8333 117.5,10.5C 116.022,10.762 114.689,10.4287 113.5,9.5C 115.737,8.8679 117.403,7.53457 118.5,5.5C 119.491,9.44539 119.824,13.4454 119.5,17.5C 120.833,17.5 122.167,17.5 123.5,17.5C 123.5,18.5 123.5,19.5 123.5,20.5 Z"/></g>
<g><path style="opacity:0.825" fill="#0c0b0b" d="M 37.5,7.5 C 39.8568,7.33669 42.1902,7.50335 44.5,8C 45.2705,10.6067 45.9371,13.2734 46.5,16C 46.3552,16.772 46.0219,17.4387 45.5,18C 42.854,18.4974 40.1873,18.6641 37.5,18.5C 37.5,14.8333 37.5,11.1667 37.5,7.5 Z M 39.5,8.5 C 44.0122,9.28014 44.3455,10.6135 40.5,12.5C 39.5713,11.3112 39.238,9.97782 39.5,8.5 Z M 39.5,13.5 C 44.0122,14.2801 44.3455,15.6135 40.5,17.5C 39.5713,16.3112 39.238,14.9778 39.5,13.5 Z"/></g>
<g><path style="opacity:0.745" fill="#0c0b0a" d="M 52.5,7.5 C 53.7868,8.87135 54.4535,10.7047 54.5,13C 54.1667,14.8333 53.8333,16.6667 53.5,18.5C 52.5108,14.8927 52.1774,11.226 52.5,7.5 Z"/></g>
<g><path style="opacity:0.96" fill="#0d0c0c" d="M 59.5,8.5 C 65.4532,7.03831 67.7865,7.03831 66.5,8.5C 66.5,11.8333 66.5,15.1667 66.5,18.5C 65.5,18.5 64.5,18.5 63.5,18.5C 63.5,15.1667 63.5,11.8333 63.5,8.5C 62.1667,8.5 60.8333,8.5 59.5,8.5 Z"/></g>
<g><path style="opacity:0.889" fill="#0d0c0c" d="M 96.5,20.5 C 94.1667,20.5 91.8333,20.5 89.5,20.5C 90.129,18.5351 90.7957,16.5351 91.5,14.5C 91.2104,12.9559 90.5437,11.6226 89.5,10.5C 92.5,9.16667 95.5,9.16667 98.5,10.5C 95.1229,11.5806 93.4562,13.9139 93.5,17.5C 94.5,17.5 95.5,17.5 96.5,17.5C 96.5,18.5 96.5,19.5 96.5,20.5 Z"/></g>
<g><path style="opacity:0.795" fill="#0c0b0b" d="M 148.5,20.5 C 147.833,20.5 147.167,20.5 146.5,20.5C 145.5,19.1667 144.5,19.1667 143.5,20.5C 142.833,20.5 142.167,20.5 141.5,20.5C 140.791,19.596 139.791,19.2627 138.5,19.5C 138.928,16.3279 139.095,13.3279 139,10.5C 141.667,9.16667 144.333,9.16667 147,10.5C 147.455,13.8536 147.955,17.1869 148.5,20.5 Z M 141.5,11.5 C 143.103,11.3118 144.437,11.8118 145.5,13C 143.537,13.8442 142.204,13.3442 141.5,11.5 Z M 141.5,15.5 C 142.675,15.281 143.675,15.6143 144.5,16.5C 142.948,17.7979 141.948,17.4646 141.5,15.5 Z"/></g>
<g><path style="opacity:0.71" fill="#0b0a0a" d="M 167.5,20.5 C 166.5,20.5 165.5,20.5 164.5,20.5C 162.701,19.7304 161.368,18.397 160.5,16.5C 161.025,15.8076 161.692,15.3076 162.5,15C 160.647,11.5529 161.647,9.71955 165.5,9.5C 168.124,9.28945 169.79,10.4561 170.5,13C 169.833,13.3333 169.167,13.6667 168.5,14C 171.223,16.6587 170.89,18.8253 167.5,20.5 Z M 164.5,11.5 C 166.983,11.73 167.483,12.3966 166,13.5C 164.97,13.1639 164.47,12.4972 164.5,11.5 Z M 163.5,16.5 C 164.849,15.2035 166.182,15.3702 167.5,17C 166.072,17.5791 164.738,17.4124 163.5,16.5 Z"/></g>
<g><path style="opacity:0.911" fill="#0c0b0b" d="M 128.5,20.5 C 127.5,20.5 126.5,20.5 125.5,20.5C 125.5,16.8333 125.5,13.1667 125.5,9.5C 128.572,9.18259 131.572,9.51592 134.5,10.5C 135.407,13.4212 135.74,16.4212 135.5,19.5C 134.5,19.5 133.5,19.5 132.5,19.5C 132.663,17.1432 132.497,14.8098 132,12.5C 131,11.1667 130,11.1667 129,12.5C 128.503,15.146 128.336,17.8127 128.5,20.5 Z"/></g>
</svg>
